<?xml version="1.0" encoding="utf-8"?>
<!-- Generator: Adobe Illustrator 26.5.1, SVG Export Plug-In . SVG Version: 6.00 Build 0)  -->
<svg version="1.1" id="Ebene_1" xmlns="http://www.w3.org/2000/svg" xmlns:xlink="http://www.w3.org/1999/xlink" x="0px" y="0px"
	 viewBox="0 0 920 178" style="enable-background:new 0 0 920 178;" xml:space="preserve">
<style type="text/css">
	.st0{fill-rule:evenodd;clip-rule:evenodd;fill:#24B9D5;}
	.st1{fill-rule:evenodd;clip-rule:evenodd;fill:#006A77;}
</style>
<path class="st0" d="M88.6,0.8c48.9,0,88.6,39.8,88.6,88.6c0,48.9-39.8,88.6-88.6,88.6S0,138.2,0,89.4C0,40.5,39.8,0.8,88.6,0.8z
	 M88.6,10.2c-43.7,0-79.2,35.5-79.2,79.2s35.5,79.2,79.2,79.2s79.2-35.5,79.2-79.2C167.8,45.7,132.3,10.2,88.6,10.2L88.6,10.2z
	 M46.6,44.5L46.6,44.5C46.8,44.6,46.7,44.6,46.6,44.5c-5.3,8-8.5,17.4-8.5,27.7c0,27.2,22.1,49.3,49.3,49.3c2.2,0,4.5-0.2,6.6-0.5
	c0,0,1.6-0.2,2.4-0.2c8.1,0,14.6,6.6,14.6,14.6c0,7.2-5.2,13.3-12.1,14.5c-3.4,0.6-6.8,0.9-10.3,0.9c-33.9,0-61.5-27.5-61.5-61.5
	C27.2,71.7,34.6,55.8,46.6,44.5L46.6,44.5z M100.5,30.8l0.2,0.1c0,0,0.1,0,0.1,0.1c0,0,0,0.1-0.1,0.1h-0.1
	c-19.6,4.5-34,22.5-34.7,44.2c-0.3,6.9,1,13.8,3.6,20.2c2.6,6.3,6.5,12,11.5,16.6l0.1,0.1c0,0,0,0,0,0.1c0,0,0,0-0.1,0l0,0
	c-5.4-1.1-10.6-3.4-15.2-6.5c-4.7-3.2-8.6-7.3-11.6-12.1s-5-10.1-6-15.7c-0.9-5.6-0.7-11.3,0.7-16.8c1.4-5.7,4-11.1,7.6-15.7
	s8.2-8.5,13.4-11.2C79.3,29.2,90.2,28,100.5,30.8z M123.2,43.1c8.5,3.2,15.5,9.4,19.5,17.5l0.1,0.2v0.1c0,0,0,0-0.1,0l-0.1-0.1
	c-14-9.9-33.6-8.9-47.9,2.7c-4.6,3.7-8.3,8.3-10.9,13.5s-4,10.8-4.2,16.5v0.1c0,0,0,0-0.1,0.1l0,0l0,0c-2.3-4.1-3.9-8.6-4.4-13.2
	c-0.6-4.7-0.2-9.5,1.2-14.1c1.4-4.6,3.6-8.8,6.7-12.5s6.9-6.7,11.2-8.9c4.5-2.3,9.4-3.6,14.4-3.9C113.5,40.6,118.5,41.4,123.2,43.1z
	"/>
<path class="st1" d="M455.1,45.7c12.6,0,22.9,3.8,30.7,10.8l-7.5,12c-6.6-6.6-15.6-9.6-24.5-9.6c-8.8,0-14.3,4.2-14.3,10.5
	c0,6.6,8.6,8.8,18.6,11.3c0.6,0.1,1.1,0.3,1.7,0.4l0.9,0.2c0.3,0.1,0.6,0.1,0.9,0.2l0.9,0.2c12.9,3.5,26.3,8.6,26.3,25.2
	c0,14.1-9.9,26.1-32.7,26.1c-15.2,0-26.3-5.2-33.8-12.8l7.7-12c5.8,6.2,15,11.7,26.8,11.7c12.2,0,17-6,17-11.5
	c0-7.6-9-9.9-19.3-12.6l-0.4-0.1l-0.8-0.2c-0.1,0-0.3-0.1-0.4-0.1l-0.8-0.2c-0.7-0.2-1.4-0.4-2.1-0.5l-0.8-0.2
	c-12.3-3.3-24.6-8.4-24.6-24C424.3,56.5,436.6,45.7,455.1,45.7L455.1,45.7z M289.6,47v13.1H264v71.5h-14.8V60.1h-25.6V47H289.6z
	 M332.1,47c26.4,0,44.3,17.5,44.3,42.4s-17.9,42.2-44.3,42.2h-31.5V47H332.1z M509.2,47l23.3,36.3L555.7,47h17L540,96.5v35.1h-14.8
	V96.5l-33-49.5H509.2z M597.5,47l43.2,60V47h14.8v84.6h-14.3L597.1,70v61.6h-14.8V47H597.5z M689.8,47l43.2,60V47h14.8v84.6h-14.3
	L689.4,70v61.6h-14.8V47H689.8z M824.8,47v13.1h-43.1V82h42.2v13.1h-42.2v23.5h43.1v13.1h-58V47H824.8z M856.4,47l21.8,31.1
	L899.9,47h17.9l-29.7,41.1l31.6,43.5h-17.8l-23.7-33.1l-23.7,33.1h-17.8l31.7-43.4L838.6,47H856.4z M332.1,60.1h-16.6v58.5h16.6
	c18.4,0,29-13.2,29-29.2C361.1,73,351,60.1,332.1,60.1z"/>
</svg>
